<svg xmlns="http://www.w3.org/2000/svg" version="1.1" xmlns:xlink="http://www.w3.org/1999/xlink" xmlns:svgjs="http://svgjs.dev/svgjs" width="400" height="400"><svg id="SvgjsSvg1017" version="1.1" xmlns="http://www.w3.org/2000/svg" xmlns:xlink="http://www.w3.org/1999/xlink" width="400" height="400" viewBox="0, 0, 400,400"><g id="SvgjsG1016"><path id="SvgjsPath1015" d="M197.070 71.257 C 192.044 73.500,191.521 80.717,196.162 83.788 L 197.656 84.777 197.644 106.353 L 197.633 127.930 194.129 131.633 L 190.625 135.337 190.625 123.893 L 190.625 112.450 191.811 111.452 C 196.286 107.686,194.122 101.169,188.398 101.173 C 182.715 101.178,180.313 108.884,185.139 111.631 L 186.323 112.305 186.320 125.000 L 186.316 137.695 183.197 134.525 L 180.078 131.354 180.093 110.501 L 180.108 89.648 181.640 88.589 C 188.795 83.641,182.359 72.739,174.598 76.660 C 169.505 79.233,169.541 86.963,174.655 89.082 L 175.781 89.548 175.781 110.980 L 175.781 132.411 186.708 143.647 L 197.635 154.883 197.645 184.668 L 197.656 214.453 199.805 214.453 L 201.953 214.453 201.956 184.668 L 201.958 154.883 208.907 147.852 C 212.729 143.984,217.741 138.859,220.044 136.462 L 224.232 132.104 224.212 110.919 L 224.192 89.734 225.280 89.073 C 230.452 85.928,230.404 79.084,225.193 76.561 C 217.347 72.763,211.183 83.627,218.366 88.593 L 219.892 89.648 219.890 110.156 L 219.888 130.664 216.789 133.984 L 213.690 137.305 213.681 124.858 L 213.672 112.411 215.272 110.991 C 220.233 106.586,214.846 98.853,208.848 101.771 C 205.094 103.597,204.834 109.542,208.405 111.883 L 209.375 112.518 209.375 123.837 C 209.375 130.063,209.312 135.156,209.235 135.156 C 209.158 135.156,207.491 133.530,205.530 131.543 L 201.964 127.930 201.958 106.152 C 201.954 87.332,202.030 84.375,202.523 84.375 C 202.836 84.375,203.783 83.716,204.628 82.910 C 210.326 77.476,204.222 68.064,197.070 71.257 M201.801 75.524 C 203.869 77.302,202.574 80.859,199.859 80.859 C 197.076 80.859,195.865 77.531,197.945 75.602 C 199.278 74.366,200.428 74.343,201.801 75.524 M179.826 80.645 C 181.175 81.896,181.206 83.673,179.901 84.979 C 178.556 86.323,176.506 86.291,175.419 84.908 C 172.948 81.767,176.905 77.939,179.826 80.645 M224.379 80.889 C 226.874 83.854,222.865 87.737,220.045 85.088 C 218.079 83.241,219.434 79.688,222.104 79.688 C 223.036 79.688,223.634 80.003,224.379 80.889 M153.031 84.540 C 147.114 86.652,146.151 94.027,151.378 97.197 L 153.100 98.242 153.113 112.887 L 153.125 127.531 145.898 120.313 L 138.672 113.094 138.687 109.574 L 138.702 106.055 139.942 105.273 C 145.810 101.576,143.213 92.488,136.289 92.488 C 129.034 92.488,126.592 102.108,132.986 105.500 L 134.766 106.444 134.766 110.745 L 134.766 115.046 142.800 123.050 C 147.218 127.453,157.661 138.004,166.006 146.497 L 181.177 161.939 177.210 161.783 C 171.849 161.573,173.758 163.167,149.964 139.044 L 128.711 117.496 128.711 114.300 C 128.711 108.120,123.551 104.668,118.627 107.554 C 111.229 111.890,116.533 123.593,124.414 120.324 C 125.148 120.020,135.938 129.971,135.938 130.952 C 135.938 131.835,120.791 131.263,120.562 130.371 C 118.876 123.799,108.283 125.041,107.193 131.939 C 106.035 139.264,116.822 143.176,120.148 136.638 C 120.508 135.931,120.864 135.282,120.939 135.198 C 121.015 135.113,125.332 134.959,130.533 134.857 L 139.989 134.670 146.332 141.261 L 152.674 147.852 135.029 147.959 C 118.851 148.058,117.350 148.012,116.992 147.410 C 112.984 140.678,103.516 142.498,103.516 150.000 C 103.516 157.236,113.614 159.749,116.699 153.281 L 117.332 151.953 127.113 151.953 L 136.893 151.953 134.174 154.785 C 132.678 156.343,130.242 158.792,128.761 160.227 L 126.067 162.836 124.939 162.003 C 119.374 157.888,111.645 164.824,114.833 171.072 C 118.072 177.421,127.207 175.493,127.922 168.309 C 128.077 166.744,128.514 166.220,135.426 159.300 L 142.766 151.953 149.807 151.953 L 156.848 151.953 161.725 156.874 L 166.602 161.796 157.813 161.536 L 149.023 161.277 143.586 166.745 L 138.149 172.213 136.336 171.998 C 129.961 171.243,126.773 179.563,131.929 183.496 C 137.067 187.415,144.162 181.807,141.829 175.671 C 141.504 174.814,141.909 174.292,146.269 169.942 L 151.068 165.155 159.603 165.487 L 168.139 165.820 161.542 172.770 C 155.142 179.512,154.909 179.711,153.742 179.417 C 145.861 177.433,141.281 188.292,148.438 191.993 C 153.521 194.621,160.413 188.453,157.816 183.601 C 157.486 182.984,158.682 181.598,165.968 174.151 L 174.507 165.424 179.734 165.768 C 184.786 166.101,187.109 166.782,187.109 167.929 C 187.109 168.092,184.646 170.788,181.635 173.919 L 176.161 179.612 173.920 179.435 C 167.278 178.911,164.201 186.845,169.308 191.329 C 174.294 195.707,181.864 190.347,179.785 183.911 L 179.162 181.981 184.574 176.559 C 187.551 173.576,190.130 171.225,190.306 171.333 C 190.481 171.442,190.625 181.188,190.625 192.992 L 190.625 214.453 192.578 214.453 L 194.531 214.453 194.523 192.676 C 194.514 171.683,194.486 170.836,193.726 169.162 C 193.155 167.902,189.510 163.982,180.454 154.886 L 167.969 142.346 167.969 126.056 C 167.969 112.885,168.067 109.766,168.481 109.766 C 169.411 109.766,171.456 107.382,171.717 105.994 C 172.524 101.689,169.795 98.047,165.761 98.047 C 159.852 98.047,157.600 106.226,162.649 109.346 L 164.063 110.220 164.063 124.251 C 164.063 131.967,163.998 138.281,163.918 138.281 C 163.839 138.281,162.347 136.831,160.604 135.059 L 157.434 131.836 157.428 114.973 L 157.422 98.111 158.722 97.307 C 165.568 93.076,160.564 81.852,153.031 84.540 M242.773 84.403 C 237.344 86.017,236.294 94.127,241.113 97.233 L 242.578 98.178 242.578 115.015 L 242.578 131.853 239.258 135.156 L 235.938 138.459 235.942 124.210 L 235.947 109.961 237.247 109.119 C 240.943 106.726,240.647 100.854,236.725 98.770 C 229.909 95.148,223.899 105.013,230.382 109.180 L 231.598 109.961 231.717 126.260 L 231.836 142.559 219.297 155.366 C 212.400 162.409,206.423 168.786,206.015 169.535 C 205.316 170.821,205.267 172.140,205.163 192.676 L 205.053 214.453 207.009 214.453 L 208.965 214.453 209.072 193.001 C 209.131 181.202,209.318 171.411,209.486 171.243 C 209.655 171.074,212.248 173.386,215.248 176.381 L 220.703 181.825 220.688 185.346 L 220.673 188.867 219.172 189.905 C 213.644 193.725,217.555 203.021,224.072 201.552 C 230.013 200.212,231.228 192.845,226.062 189.485 L 224.609 188.541 224.609 184.412 L 224.609 180.282 218.544 174.208 L 212.479 168.135 213.564 167.116 C 214.572 166.170,215.013 166.074,219.829 165.764 L 225.009 165.430 231.160 171.680 C 242.923 183.630,242.237 182.804,241.738 184.431 C 239.729 190.976,248.797 195.539,253.264 190.231 C 257.410 185.302,252.984 177.831,246.797 179.316 L 244.747 179.807 238.031 172.814 L 231.316 165.820 239.931 165.490 L 248.547 165.160 253.380 169.981 C 256.702 173.296,258.135 174.986,257.965 175.390 C 254.791 182.923,264.861 188.443,269.424 181.671 C 272.311 177.388,268.291 171.273,263.097 172.047 L 261.523 172.281 256.055 166.799 L 250.586 161.317 242.090 161.579 C 237.417 161.724,233.594 161.708,233.594 161.544 C 233.594 161.380,235.648 159.155,238.158 156.600 L 242.723 151.953 249.982 151.953 L 257.241 151.953 264.558 159.294 C 271.172 165.930,271.875 166.763,271.875 167.960 C 271.875 174.150,279.737 177.162,284.057 172.626 C 289.641 166.762,281.466 157.267,274.969 162.071 L 273.789 162.943 268.242 157.455 L 262.695 151.968 272.549 151.961 L 282.402 151.953 282.963 153.027 C 286.455 159.713,296.276 157.505,296.276 150.035 C 296.276 143.387,288.188 140.547,283.871 145.678 C 283.289 146.369,282.813 147.185,282.813 147.491 C 282.813 147.964,280.112 148.047,264.750 148.047 L 246.688 148.047 253.237 141.489 L 259.786 134.932 269.154 134.946 L 278.523 134.961 279.245 136.149 C 284.100 144.133,296.041 138.006,291.806 129.705 C 289.178 124.555,280.390 125.000,279.047 130.350 L 278.822 131.250 271.247 131.250 C 267.081 131.250,263.679 131.118,263.687 130.957 C 263.695 130.796,266.112 128.240,269.058 125.278 L 274.414 119.892 275.709 120.345 C 280.475 122.010,285.679 117.882,285.006 112.972 C 283.684 103.328,270.222 105.222,271.234 114.910 L 271.478 117.245 250.583 138.452 C 239.091 150.116,229.029 160.104,228.223 160.648 C 226.825 161.592,219.125 162.537,219.148 161.762 C 219.151 161.631,229.513 151.064,242.174 138.281 L 265.194 115.039 265.214 110.675 L 265.234 106.311 266.537 105.881 C 273.475 103.591,271.661 93.120,264.245 92.648 C 257.350 92.209,254.164 101.127,259.821 105.034 L 261.298 106.055 261.313 109.574 L 261.328 113.094 253.906 120.508 L 246.484 127.922 246.484 112.984 C 246.484 100.955,246.584 98.047,246.994 98.047 C 247.874 98.047,250.157 96.124,251.072 94.613 C 254.232 89.394,248.736 82.631,242.773 84.403 M157.001 88.902 C 159.725 91.193,156.899 95.737,153.783 94.077 C 151.341 92.776,151.303 89.744,153.711 88.362 C 154.913 87.673,155.692 87.801,157.001 88.902 M247.168 89.294 C 248.369 90.638,248.281 92.014,246.905 93.389 C 244.759 95.536,241.772 94.183,241.809 91.081 C 241.844 88.179,245.178 87.067,247.168 89.294 M138.237 97.168 C 141.306 99.716,137.369 104.392,134.232 101.925 C 132.922 100.894,132.806 98.620,134.000 97.339 C 134.980 96.287,137.074 96.203,138.237 97.168 M266.016 97.266 C 267.210 98.460,267.081 100.892,265.768 101.925 C 262.736 104.309,259.079 100.271,261.722 97.458 C 262.868 96.238,264.897 96.147,266.016 97.266 M167.584 102.270 C 169.211 103.587,167.958 107.031,165.851 107.031 C 164.772 107.031,163.281 105.429,163.281 104.269 C 163.281 101.965,165.776 100.806,167.584 102.270 M235.614 102.209 C 237.059 103.517,236.316 106.041,234.273 106.766 C 232.492 107.398,230.327 104.850,231.222 103.177 C 232.096 101.544,234.334 101.051,235.614 102.209 M190.474 106.091 C 190.825 107.489,190.503 108.328,189.371 108.963 C 187.464 110.033,185.002 107.262,186.382 105.599 C 187.629 104.096,190.046 104.387,190.474 106.091 M212.958 105.334 C 214.443 106.678,213.445 108.984,211.378 108.984 C 209.972 108.984,209.375 108.327,209.375 106.777 C 209.375 104.831,211.470 103.987,212.958 105.334 M124.041 111.506 C 125.908 113.373,124.736 116.797,122.229 116.797 C 119.087 116.797,117.736 113.845,119.892 111.689 C 121.301 110.280,122.751 110.216,124.041 111.506 M280.108 111.689 C 281.395 112.976,281.500 113.618,280.679 115.206 C 279.232 118.004,275.000 116.941,275.000 113.781 C 275.000 110.863,278.038 109.619,280.108 111.689 M116.309 131.108 C 117.436 132.349,117.424 133.665,116.273 135.004 C 113.820 137.856,109.406 134.391,111.565 131.309 C 112.836 129.495,114.768 129.413,116.309 131.108 M287.793 130.956 C 289.699 132.735,288.255 135.938,285.547 135.938 C 282.613 135.938,281.474 132.919,283.604 130.789 C 284.945 129.448,286.231 129.499,287.793 130.956 M197.573 145.127 L 197.461 148.847 193.795 145.164 L 190.129 141.481 193.795 137.689 L 197.461 133.898 197.573 137.652 C 197.634 139.717,197.634 143.080,197.573 145.127 M206.017 137.731 L 209.495 141.477 205.724 145.248 L 201.953 149.018 201.953 141.501 C 201.953 137.367,202.085 133.984,202.246 133.985 C 202.407 133.985,204.104 135.671,206.017 137.731 M112.268 147.754 C 113.784 149.108,113.918 150.429,112.687 151.891 C 111.385 153.439,109.758 153.543,108.381 152.166 C 105.638 149.424,109.382 145.175,112.268 147.754 M291.158 147.685 C 293.269 149.345,291.987 153.125,289.313 153.125 C 286.534 153.125,285.191 149.389,287.357 147.685 C 287.923 147.239,288.779 146.875,289.258 146.875 C 289.737 146.875,290.592 147.239,291.158 147.685 M122.443 165.086 C 124.180 165.753,124.441 168.539,122.925 170.215 C 121.228 172.090,117.969 170.675,117.969 168.063 C 117.969 165.639,120.132 164.199,122.443 165.086 M281.222 165.873 C 283.562 168.849,279.872 172.513,276.983 170.082 C 274.721 168.179,275.945 164.844,278.906 164.844 C 280.068 164.844,280.597 165.079,281.222 165.873 M137.700 176.568 C 139.256 178.287,138.036 181.250,135.773 181.250 C 134.509 181.250,133.203 179.853,133.203 178.500 C 133.203 176.145,136.165 174.872,137.700 176.568 M265.987 176.810 C 267.050 178.162,267.009 179.120,265.838 180.291 C 263.402 182.727,259.942 179.497,261.936 176.649 C 262.826 175.379,264.927 175.463,265.987 176.810 M153.268 183.622 C 154.650 184.709,154.682 186.760,153.338 188.104 C 152.074 189.368,150.973 189.314,149.579 187.921 C 146.954 185.295,150.355 181.331,153.268 183.622 M249.970 183.824 C 252.042 185.567,251.259 188.389,248.558 188.910 C 247.020 189.207,245.313 187.632,245.313 185.915 C 245.313 184.798,247.188 182.813,248.242 182.813 C 248.531 182.813,249.309 183.268,249.970 183.824 M175.375 184.058 C 177.603 186.450,174.773 190.223,171.903 188.687 C 171.517 188.480,170.987 187.795,170.726 187.164 C 169.542 184.306,173.280 181.808,175.375 184.058 M225.383 194.263 C 225.911 195.190,225.891 195.370,225.149 196.369 C 223.594 198.460,220.313 197.761,220.313 195.339 C 220.313 192.166,223.770 191.433,225.383 194.263 M215.803 207.990 C 213.611 210.182,215.819 213.854,218.720 212.843 C 221.748 211.787,220.974 207.031,217.773 207.031 C 217.217 207.031,216.330 207.463,215.803 207.990 " stroke="none" fill="#0dafbe" fill-rule="evenodd"></path><path id="SvgjsPath1014" d="M0.000 200.000 L 0.000 400.000 200.000 400.000 L 400.000 400.000 400.000 200.000 L 400.000 0.000 200.000 0.000 L 0.000 0.000 0.000 200.000 M203.047 71.252 C 208.283 73.976,208.272 81.485,203.027 84.225 L 201.953 84.786 201.953 106.365 L 201.953 127.945 205.664 131.641 L 209.375 135.336 209.375 124.053 L 209.375 112.770 207.883 111.493 C 204.270 108.401,205.172 103.026,209.587 101.340 C 215.663 99.020,220.436 107.931,215.003 111.449 L 213.682 112.305 213.677 124.600 L 213.672 136.896 216.797 133.789 L 219.922 130.682 219.922 110.157 L 219.922 89.631 218.500 88.865 C 211.903 85.312,215.121 75.312,222.685 75.859 C 229.737 76.369,231.765 86.422,225.352 89.078 L 224.219 89.548 224.219 110.929 L 224.219 132.311 213.086 143.668 L 201.953 155.026 201.953 184.739 L 201.953 214.453 199.805 214.453 L 197.656 214.453 197.656 184.653 L 197.656 154.853 195.671 152.915 C 194.579 151.849,189.652 146.817,184.721 141.734 L 175.756 132.491 175.775 111.181 L 175.794 89.870 174.713 89.306 C 167.877 85.735,170.249 75.781,177.937 75.781 C 182.858 75.781,186.186 81.001,184.238 85.663 C 183.715 86.914,181.181 89.453,180.455 89.453 C 180.218 89.453,180.080 97.143,180.084 110.254 L 180.091 131.055 183.062 134.082 C 184.697 135.747,186.091 137.109,186.160 137.109 C 186.230 137.109,186.301 131.637,186.317 124.948 L 186.347 112.786 184.784 111.448 C 181.069 108.269,182.199 102.389,186.760 101.161 C 193.204 99.426,197.168 107.686,191.798 111.656 L 190.625 112.523 190.625 123.787 L 190.625 135.051 194.141 131.466 L 197.656 127.881 197.656 106.333 L 197.656 84.786 196.505 84.190 C 192.897 82.324,191.611 76.615,194.111 73.562 C 196.268 70.928,200.380 69.865,203.047 71.252 M199.324 74.908 C 198.845 74.988,198.098 75.504,197.664 76.055 C 195.432 78.893,198.863 82.285,201.705 80.050 C 204.027 78.224,202.266 74.422,199.324 74.908 M176.367 80.159 C 174.362 81.309,174.053 83.322,175.639 84.908 C 177.078 86.346,179.030 86.140,180.359 84.409 C 182.055 82.200,178.818 78.754,176.367 80.159 M220.099 80.646 C 218.248 82.497,219.530 85.938,222.070 85.938 C 224.684 85.938,226.021 82.110,223.971 80.497 C 222.605 79.423,221.271 79.475,220.099 80.646 M159.038 85.341 C 163.221 88.109,162.992 94.925,158.630 97.502 L 157.422 98.215 157.422 115.035 L 157.422 131.854 160.547 134.961 L 163.672 138.068 163.669 124.014 L 163.667 109.961 162.506 109.300 C 157.363 106.374,159.826 97.917,165.820 97.917 C 171.859 97.917,174.434 106.087,169.422 109.343 L 167.969 110.287 167.969 126.333 L 167.969 142.378 180.436 154.881 C 187.436 161.901,193.259 168.065,193.717 168.940 C 194.514 170.464,194.531 170.956,194.531 192.475 L 194.531 214.453 192.578 214.453 L 190.625 214.453 190.625 192.992 C 190.625 181.188,190.481 171.441,190.305 171.333 C 190.026 171.161,184.309 176.761,180.550 180.887 L 179.279 182.283 179.914 183.803 C 182.176 189.218,175.867 194.900,170.447 192.328 C 163.850 189.197,166.348 179.017,173.633 179.344 L 175.977 179.449 181.445 173.887 C 184.453 170.828,186.966 168.176,187.030 167.995 C 187.401 166.936,184.470 166.099,179.462 165.833 L 174.354 165.562 166.181 174.040 C 159.400 181.075,158.022 182.694,158.092 183.545 C 158.441 187.794,157.979 189.368,155.856 191.154 C 153.182 193.404,149.585 193.372,147.133 191.077 C 141.950 186.226,146.401 177.501,153.181 179.222 L 154.781 179.628 159.142 175.068 C 161.540 172.560,164.515 169.429,165.753 168.110 L 168.004 165.713 159.490 165.519 L 150.977 165.326 146.389 170.065 C 142.084 174.512,141.818 174.877,142.087 175.977 C 143.409 181.391,139.255 186.062,134.295 184.740 C 126.682 182.711,128.202 171.502,136.030 171.944 L 138.271 172.070 143.708 166.644 L 149.145 161.217 157.568 161.411 L 165.991 161.606 161.463 156.779 L 156.935 151.953 149.858 151.953 L 142.781 151.953 135.453 159.273 C 128.746 165.974,128.124 166.710,128.116 167.965 C 128.073 174.912,118.514 177.645,115.034 171.706 C 111.288 165.314,118.029 158.243,124.602 161.669 L 126.306 162.557 131.608 157.255 L 136.911 151.953 127.254 151.953 L 117.598 151.953 117.037 153.027 C 113.414 159.963,103.512 157.686,103.517 149.918 C 103.522 142.982,112.572 140.423,116.297 146.304 L 117.383 148.018 135.152 148.033 L 152.921 148.047 146.484 141.602 L 140.048 135.156 130.581 135.156 L 121.114 135.156 120.518 136.308 C 117.366 142.404,107.902 140.661,107.134 133.843 C 106.191 125.481,118.039 122.617,120.816 130.535 C 121.019 131.112,121.918 131.193,128.589 131.233 L 136.133 131.278 133.791 128.822 C 132.504 127.472,130.072 124.943,128.388 123.201 L 125.326 120.036 123.726 120.587 C 118.171 122.501,113.055 116.281,115.591 110.697 C 119.240 102.661,130.918 107.315,128.765 115.946 L 128.441 117.244 142.447 131.376 C 150.150 139.149,159.879 148.986,164.066 153.236 C 172.580 161.879,172.519 161.841,177.608 161.646 L 180.802 161.523 157.801 138.281 L 134.800 115.039 134.779 110.742 L 134.758 106.445 133.261 105.817 C 125.657 102.626,129.855 90.407,137.827 92.528 C 143.708 94.094,145.182 100.812,140.541 104.900 L 138.787 106.445 138.713 109.766 L 138.640 113.086 145.883 120.309 L 153.125 127.531 153.125 113.081 L 153.125 98.631 151.270 97.265 C 143.508 91.549,151.013 80.030,159.038 85.341 M247.557 84.585 C 253.229 86.955,253.512 94.868,248.024 97.668 L 246.484 98.453 246.484 113.188 L 246.484 127.922 253.906 120.508 L 261.328 113.094 261.313 109.574 L 261.298 106.055 260.058 105.273 C 253.484 101.131,258.120 90.557,265.624 92.578 C 272.235 94.358,272.808 104.649,266.374 106.062 L 265.258 106.307 265.149 110.963 L 265.039 115.619 242.000 138.669 L 218.961 161.719 223.055 161.731 L 227.148 161.742 249.235 139.532 L 271.322 117.323 271.167 114.569 C 270.684 106.021,281.287 103.215,284.552 111.028 C 287.011 116.915,280.840 122.832,275.000 120.186 C 274.584 119.997,272.845 121.566,269.014 125.585 L 263.614 131.250 271.055 131.250 L 278.496 131.250 279.139 129.980 C 282.181 123.975,290.493 124.618,292.390 131.005 C 294.697 138.775,283.916 143.767,279.733 136.866 L 278.711 135.181 269.109 135.169 L 259.507 135.156 253.386 141.376 C 250.020 144.797,247.266 147.697,247.266 147.821 C 247.266 147.945,255.165 148.047,264.819 148.047 L 282.372 148.047 283.199 146.575 C 286.660 140.418,296.429 142.875,296.476 149.915 C 296.524 157.094,286.988 159.827,283.272 153.700 L 282.227 151.978 272.754 151.965 C 267.544 151.959,263.306 152.085,263.337 152.246 C 263.368 152.407,265.715 154.791,268.553 157.544 L 273.712 162.548 275.418 161.659 C 280.407 159.058,285.938 162.323,285.938 167.869 C 285.938 176.577,272.863 177.491,271.980 168.845 C 271.795 167.036,271.613 166.814,264.317 159.473 L 256.843 151.953 249.998 151.953 L 243.152 151.953 238.327 156.790 L 233.503 161.626 242.044 161.439 L 250.586 161.252 256.032 166.741 L 261.478 172.230 263.112 172.006 C 271.135 170.906,273.308 182.989,265.407 184.771 C 260.336 185.914,255.498 180.105,257.855 175.702 C 258.243 174.976,257.804 174.410,253.584 170.190 L 248.880 165.486 240.359 165.587 C 235.672 165.643,231.760 165.766,231.665 165.861 C 231.502 166.024,243.277 178.172,244.550 179.155 C 245.005 179.506,245.552 179.515,246.763 179.192 C 251.109 178.032,255.478 181.917,254.940 186.464 C 253.854 195.628,240.900 194.387,241.543 185.181 L 241.719 182.666 233.457 174.112 L 225.195 165.559 220.134 165.835 C 215.472 166.090,214.971 166.193,213.789 167.136 L 212.505 168.160 218.655 174.318 L 224.805 180.476 224.882 184.632 L 224.960 188.787 226.191 189.383 C 232.090 192.240,229.518 201.706,222.838 201.724 C 216.351 201.743,213.946 193.168,219.451 189.648 C 220.657 188.877,220.673 188.825,220.688 185.612 L 220.703 182.357 215.342 176.757 C 212.393 173.677,209.844 171.241,209.678 171.343 C 209.511 171.446,209.375 181.188,209.375 192.992 L 209.375 214.453 207.214 214.453 L 205.053 214.453 205.163 192.480 C 205.262 172.887,205.344 170.381,205.921 169.336 C 206.277 168.691,212.209 162.423,219.104 155.407 L 231.641 142.649 231.632 126.305 L 231.624 109.961 230.363 109.375 C 224.218 106.520,228.757 96.276,235.359 98.099 C 240.649 99.559,241.638 108.009,236.702 109.576 C 235.962 109.811,235.938 110.269,235.938 124.138 L 235.938 138.458 239.063 135.352 L 242.188 132.245 242.188 115.229 L 242.188 98.212 240.463 96.771 C 234.261 91.586,240.141 81.487,247.557 84.585 M152.763 89.310 C 151.172 91.333,152.396 94.141,154.868 94.141 C 156.507 94.141,157.742 93.128,158.050 91.530 C 158.585 88.763,154.532 87.062,152.763 89.310 M242.606 89.310 C 241.575 90.622,241.580 91.806,242.622 93.132 C 244.607 95.655,248.873 93.172,247.645 90.208 C 246.739 88.020,244.004 87.533,242.606 89.310 M134.162 97.443 C 132.200 99.405,133.415 102.537,136.108 102.461 C 138.041 102.406,139.063 101.422,139.063 99.617 C 139.063 96.815,136.103 95.502,134.162 97.443 M261.967 97.294 C 259.383 99.326,261.863 103.578,264.899 102.321 C 267.904 101.076,267.092 96.484,263.867 96.484 C 263.388 96.484,262.533 96.849,261.967 97.294 M164.131 102.467 C 162.523 104.178,163.497 106.641,165.782 106.641 C 168.286 106.641,169.279 103.905,167.330 102.372 C 165.999 101.325,165.180 101.350,164.131 102.467 M232.105 102.359 C 231.059 103.333,230.990 105.113,231.964 105.994 C 232.933 106.871,234.598 106.808,235.547 105.859 C 237.870 103.536,234.510 100.118,232.105 102.359 M187.182 104.955 C 186.222 105.339,185.859 107.048,186.522 108.061 C 187.308 109.259,189.613 109.364,190.221 108.229 C 191.393 106.039,189.519 104.020,187.182 104.955 M210.021 105.402 C 209.199 106.310,209.195 107.576,210.010 108.392 C 210.924 109.306,212.560 108.986,213.246 107.760 C 214.424 105.650,211.640 103.614,210.021 105.402 M120.826 110.940 C 118.906 111.714,118.519 114.689,120.170 115.987 C 123.252 118.412,126.637 114.467,123.858 111.689 C 122.658 110.488,122.218 110.380,120.826 110.940 M276.705 110.995 C 274.900 111.888,274.514 114.393,275.959 115.838 C 277.165 117.044,278.558 117.059,279.926 115.882 C 282.509 113.660,279.757 109.486,276.705 110.995 M112.241 130.655 C 111.091 131.460,110.798 132.973,111.522 134.373 C 112.601 136.458,115.537 136.433,116.625 134.329 C 118.069 131.538,114.842 128.833,112.241 130.655 M283.559 130.809 C 282.906 131.338,282.656 131.945,282.656 133.008 C 282.656 136.704,287.813 136.985,288.519 133.327 C 289.008 130.795,285.669 129.100,283.559 130.809 M201.953 141.406 L 201.953 149.018 205.759 145.212 L 209.565 141.406 205.759 137.600 L 201.953 133.794 201.953 141.406 M193.971 137.864 L 190.498 141.354 191.790 142.825 C 192.500 143.634,194.109 145.360,195.365 146.660 L 197.649 149.023 197.653 141.699 C 197.655 137.671,197.609 134.375,197.550 134.375 C 197.492 134.375,195.882 135.945,193.971 137.864 M109.110 147.339 C 106.882 148.416,107.248 152.382,109.630 152.979 C 112.861 153.791,114.690 148.997,111.732 147.468 C 110.417 146.788,110.266 146.780,109.110 147.339 M288.086 147.326 C 286.092 148.417,285.730 150.609,287.287 152.166 C 289.130 154.010,292.188 152.658,292.188 149.999 C 292.188 147.827,289.898 146.335,288.086 147.326 M118.928 165.803 C 116.993 167.737,118.514 171.094,121.325 171.094 C 122.410 171.094,123.828 169.262,123.828 167.859 C 123.828 165.173,120.820 163.910,118.928 165.803 M277.297 165.237 C 276.274 165.835,275.686 167.668,276.137 168.853 C 277.128 171.459,279.948 171.659,281.370 169.225 C 282.927 166.559,279.978 163.671,277.297 165.237 M134.232 176.591 C 131.910 178.417,134.238 182.172,136.842 180.801 C 138.503 179.927,138.820 177.883,137.500 176.563 C 136.502 175.564,135.527 175.573,134.232 176.591 M262.125 176.636 C 260.181 178.722,262.489 182.105,264.967 180.801 C 266.123 180.192,266.393 179.711,266.400 178.245 C 266.411 175.995,263.679 174.968,262.125 176.636 M149.515 183.887 C 147.576 186.073,149.668 189.603,152.312 188.607 C 154.325 187.848,154.917 185.579,153.500 184.058 C 152.518 183.004,150.380 182.912,149.515 183.887 M171.552 184.107 C 169.039 186.782,172.623 190.694,175.213 188.104 C 175.740 187.576,176.172 186.689,176.172 186.133 C 176.172 183.744,173.142 182.415,171.552 184.107 M246.139 184.211 C 245.101 185.531,245.097 186.339,246.122 187.643 C 248.318 190.434,252.618 187.288,250.500 184.439 C 249.367 182.915,247.246 182.804,246.139 184.211 M221.094 193.359 C 219.496 194.957,220.685 197.656,222.986 197.656 C 224.332 197.656,225.488 196.482,225.488 195.117 C 225.488 192.862,222.704 191.749,221.094 193.359 M219.799 207.881 C 221.038 209.044,221.013 211.054,219.744 212.322 C 217.033 215.034,213.260 211.103,215.653 208.060 C 216.677 206.759,218.520 206.679,219.799 207.881 M136.507 234.277 C 137.131 235.728,141.580 245.791,146.394 256.641 C 151.208 267.490,155.386 276.938,155.678 277.637 L 156.210 278.906 151.201 278.906 L 146.192 278.906 144.126 273.828 L 142.060 268.750 131.186 268.750 C 125.206 268.750,120.313 268.903,120.313 269.091 C 120.313 269.278,119.415 271.563,118.317 274.169 L 116.322 278.906 111.495 278.906 L 106.668 278.906 107.462 277.051 C 107.898 276.030,112.576 265.396,117.857 253.418 L 127.458 231.641 131.416 231.641 L 135.373 231.641 136.507 234.277 M185.678 232.220 C 194.513 234.092,198.633 238.939,198.633 247.461 C 198.633 258.498,191.960 263.257,176.465 263.274 L 170.313 263.281 170.313 271.094 L 170.313 278.906 165.820 278.906 L 161.328 278.906 161.328 255.273 L 161.328 231.641 172.168 231.647 C 180.119 231.652,183.719 231.805,185.678 232.220 M239.844 235.547 L 239.844 239.453 227.344 239.453 L 214.844 239.453 214.844 245.313 L 214.844 251.172 225.781 251.172 L 236.719 251.172 236.719 255.078 L 236.719 258.984 225.781 258.984 L 214.844 258.984 214.844 265.039 L 214.844 271.094 227.734 271.094 L 240.625 271.094 240.625 275.000 L 240.625 278.906 223.242 278.906 L 205.859 278.906 205.859 255.273 L 205.859 231.641 222.852 231.641 L 239.844 231.641 239.844 235.547 M263.269 239.727 C 266.391 244.067,269.052 247.626,269.182 247.637 C 269.313 247.647,271.949 244.061,275.042 239.667 L 280.664 231.679 286.082 231.660 L 291.499 231.641 290.537 232.910 C 285.239 239.905,274.993 254.497,275.130 254.854 C 275.226 255.105,279.104 260.620,283.746 267.110 C 288.389 273.600,292.188 278.953,292.188 279.006 C 292.189 279.058,289.748 279.014,286.764 278.906 L 281.340 278.711 278.060 274.219 C 276.256 271.748,273.397 267.847,271.706 265.549 L 268.632 261.371 266.218 264.768 C 264.891 266.636,262.096 270.581,260.007 273.535 L 256.210 278.906 251.119 278.906 L 246.029 278.906 246.849 277.832 C 248.045 276.266,262.718 255.746,263.024 255.211 C 263.228 254.855,253.110 240.449,247.365 232.917 L 246.375 231.619 251.984 231.727 L 257.592 231.836 263.269 239.727 M170.313 247.415 L 170.313 255.469 176.101 255.469 C 186.185 255.469,189.827 253.396,189.827 247.656 C 189.827 241.815,186.665 239.871,176.660 239.559 L 170.313 239.361 170.313 247.415 M131.141 243.440 C 131.028 243.718,129.672 246.934,128.128 250.586 C 126.584 254.238,124.987 258.062,124.580 259.082 L 123.840 260.938 131.407 260.938 L 138.974 260.938 135.315 252.091 C 131.356 242.519,131.443 242.699,131.141 243.440 M119.115 288.894 C 122.589 289.874,122.881 290.216,121.892 292.155 L 121.075 293.756 119.601 293.004 C 116.520 291.432,113.354 291.508,112.259 293.179 C 110.981 295.129,112.041 296.134,116.313 297.025 C 122.877 298.393,125.405 303.203,121.573 307.034 C 117.584 311.024,105.790 309.474,108.036 305.256 C 108.995 303.454,109.268 303.298,110.116 304.065 C 112.972 306.649,119.141 306.105,119.141 303.269 C 119.141 302.026,117.894 301.310,114.477 300.591 C 109.342 299.511,107.581 297.714,107.899 293.878 C 108.277 289.323,113.075 287.191,119.115 288.894 M236.621 289.448 C 238.953 290.452,238.964 290.476,237.852 292.360 C 236.889 293.993,236.678 294.032,235.108 292.871 C 232.407 290.874,227.245 292.138,227.873 294.642 C 228.137 295.693,229.172 296.227,232.220 296.888 C 237.064 297.938,239.058 299.768,239.061 303.165 C 239.065 308.508,232.020 311.041,225.488 308.045 C 222.644 306.740,222.780 307.027,224.075 305.070 C 225.293 303.230,224.934 303.302,227.011 304.482 C 229.297 305.782,231.522 306.083,233.316 305.333 C 236.007 304.209,235.506 301.604,232.470 300.937 C 225.299 299.362,223.623 298.026,223.906 294.108 C 224.274 289.019,230.403 286.773,236.621 289.448 M151.484 298.888 C 153.896 304.507,155.811 309.163,155.739 309.235 C 155.668 309.306,154.576 309.235,153.312 309.077 L 151.015 308.789 150.439 306.934 L 149.863 305.078 145.222 305.078 L 140.582 305.078 139.770 307.031 C 139.043 308.781,138.832 308.985,137.741 308.990 C 137.071 308.993,136.128 309.101,135.645 309.231 C 134.328 309.583,134.419 309.297,138.714 299.466 C 140.886 294.496,142.815 290.034,143.001 289.551 C 143.288 288.808,143.631 288.672,145.219 288.672 L 147.099 288.672 151.484 298.888 M172.656 297.070 L 172.656 305.469 177.734 305.469 L 182.813 305.469 182.813 307.422 L 182.813 309.375 175.781 309.375 L 168.750 309.375 168.750 299.023 L 168.750 288.672 170.703 288.672 L 172.656 288.672 172.656 297.070 M210.547 290.430 L 210.547 292.188 205.273 292.188 L 200.000 292.188 200.000 294.531 L 200.000 296.875 204.492 296.875 L 208.984 296.875 208.985 298.730 L 208.986 300.586 204.493 300.465 L 200.000 300.343 200.000 303.101 L 200.000 305.859 205.469 305.859 L 210.938 305.859 210.938 307.617 L 210.938 309.375 203.320 309.375 L 195.703 309.375 195.703 299.023 L 195.703 288.672 203.125 288.672 L 210.547 288.672 210.547 290.430 M267.007 297.559 C 269.104 302.446,271.059 307.017,271.353 307.715 L 271.885 308.984 269.710 308.984 L 267.535 308.984 266.723 307.031 L 265.911 305.078 261.328 305.078 L 256.745 305.078 255.933 307.031 L 255.121 308.984 252.910 308.984 C 251.298 308.984,250.750 308.852,250.890 308.496 C 250.996 308.228,252.977 303.657,255.293 298.340 L 259.504 288.672 261.349 288.672 L 263.194 288.672 267.007 297.559 M289.453 298.828 L 289.453 308.984 287.305 308.984 L 285.156 308.984 285.156 298.828 L 285.156 288.672 287.305 288.672 L 289.453 288.672 289.453 298.828 M144.922 294.120 C 144.922 294.396,144.229 296.183,143.381 298.092 L 141.841 301.563 145.113 301.563 L 148.385 301.563 146.848 297.786 C 145.273 293.915,144.922 293.246,144.922 294.120 M259.646 297.703 C 257.891 301.901,257.761 301.626,261.428 301.482 L 264.358 301.367 262.940 297.755 C 261.222 293.374,261.455 293.378,259.646 297.703 " stroke="none" fill="#fbfbfb" fill-rule="evenodd"></path><path id="SvgjsPath1013" d="M123.740 240.335 C 117.471 254.670,109.009 273.860,107.808 276.465 L 106.682 278.906 111.446 278.902 L 116.211 278.899 118.374 273.727 L 120.537 268.555 131.289 268.451 L 142.041 268.347 144.165 273.622 L 146.289 278.896 151.208 278.901 L 156.126 278.906 145.680 255.371 L 135.234 231.836 131.386 231.741 L 127.539 231.647 123.740 240.335 M161.328 255.228 L 161.328 278.906 165.723 278.907 L 170.117 278.907 170.004 271.150 L 169.891 263.393 177.035 263.172 C 184.652 262.937,187.266 262.471,190.938 260.692 C 201.391 255.628,201.463 239.474,191.056 234.200 C 187.048 232.169,185.427 231.949,172.949 231.742 L 161.328 231.549 161.328 255.228 M206.250 255.273 L 206.250 278.906 223.438 278.906 L 240.625 278.906 240.625 275.000 L 240.625 271.094 227.734 271.094 L 214.844 271.094 214.844 264.844 L 214.844 258.594 225.684 258.595 L 236.523 258.596 236.399 254.884 L 236.275 251.172 225.559 251.172 L 214.844 251.172 214.844 245.313 L 214.844 239.453 227.344 239.453 L 239.844 239.453 239.844 235.547 L 239.844 231.641 223.047 231.641 L 206.250 231.641 206.250 255.273 M247.134 232.520 C 247.566 233.003,250.791 237.354,254.301 242.188 C 263.149 254.375,263.281 254.561,263.281 254.886 C 263.281 255.290,248.170 276.519,246.948 277.832 L 245.948 278.906 251.036 278.906 L 256.124 278.906 262.308 270.106 C 266.728 263.817,268.613 261.425,268.914 261.725 C 269.146 261.957,272.078 265.873,275.428 270.428 L 281.521 278.711 286.933 278.820 L 292.345 278.929 291.545 278.039 C 290.651 277.044,275.036 255.196,274.894 254.742 C 274.845 254.583,278.408 249.464,282.813 243.367 C 287.217 237.269,290.879 232.136,290.951 231.960 C 291.022 231.784,288.795 231.641,286.001 231.641 L 280.922 231.641 275.748 238.965 C 272.902 242.993,270.266 246.690,269.890 247.179 L 269.206 248.069 263.262 239.855 L 257.317 231.641 251.833 231.641 L 246.348 231.641 247.134 232.520 M185.742 240.820 C 192.151 244.025,191.042 253.210,184.023 255.060 C 183.250 255.263,179.805 255.467,176.367 255.512 L 170.117 255.593 170.012 247.491 L 169.906 239.388 176.652 239.518 C 183.245 239.645,183.452 239.675,185.742 240.820 M135.327 251.791 L 139.013 260.742 131.560 260.848 C 127.460 260.907,124.030 260.879,123.937 260.786 C 123.844 260.693,125.117 257.393,126.766 253.453 C 131.142 242.996,131.343 242.541,131.499 242.697 C 131.577 242.775,133.300 246.867,135.327 251.791 M110.938 289.524 C 105.138 292.513,107.197 298.747,114.549 300.459 C 117.972 301.256,119.144 301.978,119.135 303.283 C 119.112 306.319,113.352 306.885,110.255 304.156 C 109.773 303.730,109.320 303.456,109.249 303.547 C 107.011 306.397,107.134 307.101,110.066 308.243 C 116.900 310.903,123.398 308.065,122.929 302.624 C 122.664 299.548,120.998 298.214,116.017 297.091 C 112.811 296.369,111.719 295.660,111.719 294.304 C 111.719 291.909,115.902 291.015,119.228 292.699 L 121.010 293.601 121.812 291.952 L 122.613 290.302 120.975 289.623 C 118.209 288.477,113.067 288.426,110.938 289.524 M139.288 298.518 C 136.941 303.952,134.954 308.530,134.871 308.691 C 134.788 308.853,135.658 308.984,136.805 308.984 L 138.891 308.984 139.648 307.031 L 140.406 305.078 145.187 305.078 L 149.968 305.078 150.662 307.031 L 151.355 308.984 153.412 308.984 C 155.959 308.984,156.196 310.117,151.244 298.633 L 147.034 288.867 145.294 288.752 L 143.553 288.637 139.288 298.518 M168.750 298.811 L 168.750 308.950 175.782 309.065 L 182.813 309.180 182.813 307.303 L 182.813 305.425 177.734 305.545 L 172.655 305.664 172.656 297.168 L 172.656 288.672 170.703 288.672 L 168.750 288.672 168.750 298.811 M195.993 298.847 L 196.087 309.022 203.415 309.024 L 210.742 309.026 210.862 307.443 L 210.982 305.859 205.296 305.859 L 199.609 305.859 199.609 303.125 L 199.609 300.391 204.297 300.391 L 208.984 300.391 208.984 298.633 L 208.984 296.875 204.297 296.875 L 199.609 296.875 199.609 294.531 L 199.609 292.188 205.078 292.188 L 210.547 292.188 210.547 290.430 L 210.547 288.672 203.223 288.672 L 195.898 288.671 195.993 298.847 M226.967 289.551 C 221.429 292.391,223.162 298.682,229.908 300.224 C 234.175 301.200,235.156 301.736,235.156 303.090 C 235.156 305.918,231.090 306.761,227.235 304.733 L 225.093 303.606 224.226 305.149 C 221.890 309.305,234.984 310.723,237.899 306.629 C 240.748 302.627,238.291 298.428,232.307 297.074 C 228.898 296.303,227.734 295.611,227.734 294.355 C 227.734 291.729,232.752 290.841,235.618 292.960 C 236.257 293.432,236.824 293.759,236.877 293.687 C 236.930 293.614,237.357 292.917,237.826 292.137 L 238.678 290.719 237.796 290.151 C 235.074 288.397,229.788 288.104,226.967 289.551 M259.427 289.356 C 259.126 289.918,256.399 296.135,251.545 307.324 L 250.825 308.984 252.900 308.984 L 254.974 308.984 255.786 307.031 L 256.597 305.078 261.320 305.078 L 266.043 305.078 266.797 306.836 C 267.392 308.225,267.748 308.594,268.492 308.594 C 269.010 308.594,269.971 308.701,270.629 308.833 L 271.824 309.072 267.455 298.881 L 263.086 288.690 261.440 288.681 C 260.264 288.675,259.688 288.868,259.427 289.356 M285.352 298.731 L 285.352 308.789 287.201 308.789 L 289.051 308.789 289.154 298.730 L 289.258 288.671 287.305 288.672 L 285.352 288.673 285.352 298.731 M147.034 297.822 C 148.693 301.960,148.881 301.622,144.998 301.481 L 141.852 301.367 143.445 297.538 C 145.260 293.173,145.167 293.166,147.034 297.822 M262.778 296.974 C 263.468 298.746,264.146 300.503,264.285 300.879 C 264.512 301.496,264.214 301.563,261.216 301.563 L 257.895 301.563 259.514 297.660 C 261.460 292.969,261.236 293.016,262.778 296.974 " stroke="none" fill="#05273f" fill-rule="evenodd"></path><path id="SvgjsPath1012" d="M242.187 114.961 L 242.382 132.227 242.484 115.258 C 242.541 105.925,242.453 98.156,242.289 97.992 C 242.126 97.829,242.080 105.464,242.187 114.961 M270.810 99.219 C 270.810 100.186,270.886 100.581,270.979 100.098 C 271.072 99.614,271.072 98.823,270.979 98.340 C 270.886 97.856,270.810 98.252,270.810 99.219 M171.966 104.297 C 171.966 105.049,172.046 105.356,172.144 104.980 C 172.243 104.604,172.243 103.989,172.144 103.613 C 172.046 103.237,171.966 103.545,171.966 104.297 M163.584 124.219 C 163.525 131.953,163.608 138.282,163.770 138.281 C 163.931 138.281,164.063 131.953,164.063 124.219 C 164.063 116.484,163.979 110.156,163.877 110.156 C 163.775 110.156,163.643 116.484,163.584 124.219 M251.560 128.809 L 238.086 142.383 251.660 128.908 C 264.276 116.385,265.410 115.234,265.135 115.234 C 265.080 115.234,258.971 121.343,251.560 128.809 M266.984 121.582 L 263.477 125.195 267.090 121.688 C 270.446 118.430,270.881 117.969,270.597 117.969 C 270.539 117.969,268.913 119.595,266.984 121.582 M267.764 126.660 L 264.648 129.883 267.871 126.767 C 269.644 125.053,271.094 123.603,271.094 123.544 C 271.094 123.259,270.658 123.667,267.764 126.660 M133.594 128.711 C 134.761 129.893,135.803 130.859,135.911 130.859 C 136.018 130.859,135.151 129.893,133.984 128.711 C 132.817 127.529,131.775 126.563,131.667 126.563 C 131.560 126.563,132.427 127.529,133.594 128.711 M182.813 134.180 C 184.197 135.576,185.417 136.719,185.524 136.719 C 185.632 136.719,184.587 135.576,183.203 134.180 C 181.819 132.783,180.599 131.641,180.491 131.641 C 180.384 131.641,181.428 132.783,182.813 134.180 M194.132 137.402 L 190.820 140.820 194.238 137.509 C 197.413 134.433,197.834 133.984,197.550 133.984 C 197.492 133.984,195.953 135.522,194.132 137.402 M202.344 134.107 C 202.344 134.174,202.915 134.745,203.613 135.376 L 204.883 136.523 203.736 135.254 C 202.666 134.071,202.344 133.805,202.344 134.107 M214.823 135.840 L 213.477 137.305 214.941 135.959 C 216.305 134.706,216.586 134.375,216.288 134.375 C 216.222 134.375,215.563 135.034,214.823 135.840 M130.957 135.056 C 132.622 135.129,135.347 135.129,137.012 135.056 C 138.677 134.983,137.314 134.923,133.984 134.923 C 130.654 134.923,129.292 134.983,130.957 135.056 M142.773 137.891 C 144.266 139.395,145.575 140.625,145.682 140.625 C 145.790 140.625,144.656 139.395,143.164 137.891 C 141.672 136.387,140.363 135.156,140.255 135.156 C 140.148 135.156,141.281 136.387,142.773 137.891 M152.539 141.797 C 154.895 144.160,156.911 146.094,157.018 146.094 C 157.125 146.094,155.286 144.160,152.930 141.797 C 150.574 139.434,148.558 137.500,148.451 137.500 C 148.343 137.500,150.183 139.434,152.539 141.797 M217.557 138.965 L 216.211 140.430 217.676 139.084 C 219.039 137.831,219.320 137.500,219.022 137.500 C 218.957 137.500,218.297 138.159,217.557 138.965 M238.474 150.488 L 228.711 160.352 238.574 150.589 C 247.740 141.517,248.614 140.625,248.337 140.625 C 248.282 140.625,243.843 145.063,238.474 150.488 M163.086 143.750 C 164.578 145.254,165.887 146.484,165.995 146.484 C 166.102 146.484,164.969 145.254,163.477 143.750 C 161.984 142.246,160.675 141.016,160.568 141.016 C 160.460 141.016,161.594 142.246,163.086 143.750 M190.234 141.528 C 190.234 141.596,190.806 142.167,191.504 142.798 L 192.773 143.945 191.626 142.676 C 190.557 141.492,190.234 141.227,190.234 141.528 M186.914 144.141 C 188.190 145.430,189.321 146.484,189.429 146.484 C 189.536 146.484,188.580 145.430,187.305 144.141 C 186.029 142.852,184.898 141.797,184.790 141.797 C 184.683 141.797,185.638 142.852,186.914 144.141 M217.773 156.641 C 215.202 159.219,213.186 161.328,213.293 161.328 C 213.401 161.328,215.593 159.219,218.164 156.641 C 220.735 154.063,222.751 151.953,222.644 151.953 C 222.537 151.953,220.345 154.063,217.773 156.641 M238.860 155.957 L 234.961 159.961 238.965 156.062 C 241.167 153.918,242.969 152.116,242.969 152.058 C 242.969 151.776,242.481 152.238,238.860 155.957 M262.500 157.617 C 265.610 160.732,268.242 163.281,268.349 163.281 C 268.457 163.281,266.000 160.732,262.891 157.617 C 259.781 154.502,257.149 151.953,257.041 151.953 C 256.934 151.953,259.390 154.502,262.500 157.617 M268.164 157.422 C 270.735 160.000,272.927 162.109,273.035 162.109 C 273.142 162.109,271.126 160.000,268.555 157.422 C 265.983 154.844,263.792 152.734,263.684 152.734 C 263.577 152.734,265.593 154.844,268.164 157.422 M163.672 159.180 C 165.056 160.576,166.276 161.719,166.384 161.719 C 166.491 161.719,165.447 160.576,164.063 159.180 C 162.678 157.783,161.458 156.641,161.351 156.641 C 161.243 156.641,162.288 157.783,163.672 159.180 M129.276 159.668 L 127.930 161.133 129.395 159.787 C 130.200 159.046,130.859 158.387,130.859 158.322 C 130.859 158.024,130.529 158.305,129.276 159.668 M158.301 161.613 C 159.106 161.697,160.425 161.697,161.230 161.613 C 162.036 161.528,161.377 161.459,159.766 161.459 C 158.154 161.459,157.495 161.528,158.301 161.613 M239.160 161.615 C 240.181 161.696,241.851 161.696,242.871 161.615 C 243.892 161.535,243.057 161.469,241.016 161.469 C 238.975 161.469,238.140 161.535,239.160 161.615 M270.117 165.234 C 270.956 166.094,271.731 166.797,271.838 166.797 C 271.946 166.797,271.347 166.094,270.508 165.234 C 269.669 164.375,268.894 163.672,268.787 163.672 C 268.679 163.672,269.278 164.375,270.117 165.234 M154.581 165.516 C 155.275 165.603,156.505 165.604,157.316 165.519 C 158.126 165.435,157.559 165.364,156.055 165.363 C 154.551 165.361,153.888 165.430,154.581 165.516 M242.480 165.520 C 243.394 165.603,244.888 165.603,245.801 165.520 C 246.714 165.438,245.967 165.371,244.141 165.371 C 242.314 165.371,241.567 165.438,242.480 165.520 M165.411 168.457 L 163.867 170.117 165.527 168.573 C 167.071 167.137,167.367 166.797,167.071 166.797 C 167.008 166.797,166.261 167.544,165.411 168.457 M143.346 172.949 L 141.211 175.195 143.457 173.060 C 145.544 171.077,145.882 170.703,145.592 170.703 C 145.531 170.703,144.520 171.714,143.346 172.949 M181.237 174.121 L 179.102 176.367 181.348 174.232 C 183.434 172.249,183.773 171.875,183.483 171.875 C 183.422 171.875,182.411 172.886,181.237 174.121 M209.167 193.359 C 209.167 205.068,209.216 209.858,209.277 204.004 C 209.338 198.149,209.338 188.569,209.277 182.715 C 209.216 176.860,209.167 181.650,209.167 193.359 M231.641 172.373 C 231.641 172.432,233.003 173.794,234.668 175.400 L 237.695 178.320 234.775 175.293 C 232.063 172.481,231.641 172.087,231.641 172.373 M237.500 172.373 C 237.500 172.432,238.862 173.794,240.527 175.400 L 243.555 178.320 240.635 175.293 C 237.923 172.481,237.500 172.087,237.500 172.373 M157.993 176.270 L 156.055 178.320 158.105 176.382 C 159.233 175.316,160.156 174.393,160.156 174.331 C 160.156 174.040,159.794 174.364,157.993 176.270 M216.602 178.125 C 218.742 180.273,220.581 182.031,220.688 182.031 C 220.796 182.031,219.133 180.273,216.992 178.125 C 214.852 175.977,213.013 174.219,212.905 174.219 C 212.798 174.219,214.461 175.977,216.602 178.125 M162.877 177.246 L 160.742 179.492 162.988 177.357 C 165.075 175.374,165.413 175.000,165.123 175.000 C 165.062 175.000,164.052 176.011,162.877 177.246 M177.514 177.832 L 176.367 179.102 177.637 177.954 C 178.820 176.885,179.086 176.563,178.784 176.563 C 178.717 176.563,178.146 177.134,177.514 177.832 M180.249 180.957 L 179.102 182.227 180.371 181.079 C 181.554 180.010,181.820 179.688,181.518 179.688 C 181.451 179.688,180.880 180.259,180.249 180.957 M224.750 184.766 C 224.750 186.807,224.816 187.642,224.896 186.621 C 224.977 185.601,224.977 183.931,224.896 182.910 C 224.816 181.890,224.750 182.725,224.750 184.766 M150.879 192.847 C 151.255 192.946,151.870 192.946,152.246 192.847 C 152.622 192.749,152.314 192.669,151.563 192.669 C 150.811 192.669,150.503 192.749,150.879 192.847 M206.043 255.469 C 206.043 268.252,206.092 273.481,206.152 267.090 C 206.212 260.698,206.212 250.239,206.152 243.848 C 206.092 237.456,206.043 242.686,206.043 255.469 M125.879 268.651 C 128.833 268.718,133.667 268.718,136.621 268.651 C 139.575 268.585,137.158 268.531,131.250 268.531 C 125.342 268.531,122.925 268.585,125.879 268.651 M199.734 294.531 C 199.734 295.928,199.805 296.499,199.892 295.801 C 199.979 295.103,199.979 293.960,199.892 293.262 C 199.805 292.563,199.734 293.135,199.734 294.531 M199.738 303.320 C 199.739 304.824,199.810 305.392,199.894 304.581 C 199.979 303.771,199.978 302.540,199.891 301.847 C 199.805 301.153,199.736 301.816,199.738 303.320 " stroke="none" fill="#98c7cf" fill-rule="evenodd"></path><path id="SvgjsPath1011" d="M169.999 247.340 C 169.957 251.786,170.054 255.505,170.215 255.605 C 170.376 255.705,170.462 253.298,170.407 250.257 C 170.223 240.191,170.078 239.153,169.999 247.340 M236.469 254.688 C 236.469 256.729,236.535 257.563,236.615 256.543 C 236.696 255.522,236.696 253.853,236.615 252.832 C 236.535 251.812,236.469 252.646,236.469 254.688 M220.410 258.886 C 223.364 258.952,228.198 258.952,231.152 258.886 C 234.106 258.819,231.689 258.765,225.781 258.765 C 219.873 258.765,217.456 258.819,220.410 258.886 M170.086 270.898 C 170.086 275.195,170.143 277.006,170.213 274.923 C 170.283 272.840,170.283 269.324,170.213 267.111 C 170.144 264.897,170.086 266.602,170.086 270.898 M230.766 288.558 C 231.252 288.651,231.955 288.647,232.329 288.550 C 232.702 288.452,232.305 288.375,231.445 288.380 C 230.586 288.384,230.280 288.464,230.766 288.558 M195.872 299.219 C 195.872 304.482,195.927 306.636,195.995 304.004 C 196.063 301.372,196.063 297.065,195.995 294.434 C 195.927 291.802,195.872 293.955,195.872 299.219 M285.263 291.406 C 285.263 292.373,285.339 292.769,285.432 292.285 C 285.525 291.802,285.525 291.011,285.432 290.527 C 285.339 290.044,285.263 290.439,285.263 291.406 M289.230 299.414 C 289.230 304.355,289.286 306.323,289.354 303.787 C 289.423 301.250,289.422 297.207,289.354 294.802 C 289.285 292.397,289.230 294.473,289.230 299.414 M171.953 309.275 C 173.822 309.346,176.986 309.347,178.984 309.276 C 180.982 309.205,179.453 309.146,175.586 309.146 C 171.719 309.145,170.084 309.203,171.953 309.275 M199.687 309.275 C 201.556 309.346,204.720 309.347,206.719 309.276 C 208.717 309.205,207.188 309.146,203.320 309.146 C 199.453 309.145,197.818 309.203,199.687 309.275 M230.371 309.260 C 230.854 309.353,231.646 309.353,232.129 309.260 C 232.612 309.167,232.217 309.091,231.250 309.091 C 230.283 309.091,229.888 309.167,230.371 309.260 " stroke="none" fill="#7c8494" fill-rule="evenodd"></path></g></svg><style>@media (prefers-color-scheme: light) { :root { filter: none; } }
@media (prefers-color-scheme: dark) { :root { filter: none; } }
</style></svg>